<?xml version="1.0" encoding="UTF-8" standalone="no" ?>
<!DOCTYPE svg PUBLIC "-//W3C//DTD SVG 1.1//EN" "http://www.w3.org/Graphics/SVG/1.1/DTD/svg11.dtd">
<svg xmlns="http://www.w3.org/2000/svg" xmlns:xlink="http://www.w3.org/1999/xlink" version="1.1" width="500" height="500" viewBox="0 0 500 500" xml:space="preserve">
<desc>Created with Fabric.js 4.6.0</desc>
<g transform="matrix(0.99 0 0 0.99 374.09 250)" id="S2uG3svjHz9cbWQF-bgXj"  >
<path style="stroke: #d3d5db; stroke-width: 5; stroke-dasharray: none; stroke-linecap: butt; stroke-dashoffset: 0; stroke-linejoin: miter; stroke-miterlimit: 4; fill: rgb(0,0,0); fill-opacity: 0; fill-rule: nonzero; opacity: 1;" vector-effect="non-scaling-stroke"  transform=" translate(0, 0)" d="M -124.73684 -249.47368 L -124.73684 -249.47368 C 13.043669999999992 -249.47368 124.73684 -137.78051 124.73684 0 L 124.73684 0 L 124.73684 0 L 124.73684 0 C 124.73684 137.78051 13.043670000000006 249.47368 -124.73684 249.47368 L -124.73684 249.47368" stroke-linecap="round" />
</g>
<g transform="matrix(-1 0 0 -0.99 125.82 249.97)" id="RcofIH2fZl01hieTp6FgE"  >
<path style="stroke: #d3d5db; stroke-width: 2; stroke-dasharray: none; stroke-linecap: butt; stroke-dashoffset: 0; stroke-linejoin: miter; stroke-miterlimit: 4; fill: rgb(0,0,0); fill-opacity: 0; fill-rule: nonzero; opacity: 1;" vector-effect="non-scaling-stroke"  transform=" translate(0, 0)" d="M -124.73684 -249.47368 L -122.15341000000001 -249.47368 C 14.200310000000002 -249.47368 124.73684 -137.79413 124.73684 -0.030429999999995516 L 124.73684 4.4825254619240695e-15 L 124.73684 0.03043000000000448 L 124.73684 0.03043000000000448 C 124.73684 137.79413 14.200310000000002 249.47368 -122.15341000000001 249.47368 L -124.73684 249.47368" stroke-linecap="round" />
</g>
<g transform="matrix(0.99 0 0 0.99 374.79 249.99)" id="MJ3sXXhRHluPxPThCe5rV"  >
<path style="stroke: #d3d5db; stroke-width: 5; stroke-dasharray: none; stroke-linecap: butt; stroke-dashoffset: 0; stroke-linejoin: miter; stroke-miterlimit: 4; fill: rgb(0,0,0); fill-opacity: 0; fill-rule: nonzero; opacity: 1;" vector-effect="non-scaling-stroke"  transform=" translate(0, 0)" d="M -124.73684 -249.47368 L -124.73684 -249.47368 C 13.043669999999992 -249.47368 124.73684 -137.78051 124.73684 0 L 124.73684 0 L 124.73684 0 L 124.73684 0 C 124.73684 137.78051 13.043670000000006 249.47368 -124.73684 249.47368 L -124.73684 249.47368" stroke-linecap="round" />
</g>
<g transform="matrix(-1 0 0 -0.99 126 249.96)" id="qQ_zbmJrkaQZyUivD3eLP"  >
<path style="stroke: #d3d5db; stroke-width: 2; stroke-dasharray: none; stroke-linecap: butt; stroke-dashoffset: 0; stroke-linejoin: miter; stroke-miterlimit: 4; fill: rgb(0,0,0); fill-opacity: 0; fill-rule: nonzero; opacity: 1;" vector-effect="non-scaling-stroke"  transform=" translate(0, 0)" d="M -124.73684 -249.47368 L -122.15341000000001 -249.47368 C 14.200310000000002 -249.47368 124.73684 -137.79413 124.73684 -0.030429999999995516 L 124.73684 4.4825254619240695e-15 L 124.73684 0.03043000000000448 L 124.73684 0.03043000000000448 C 124.73684 137.79413 14.200310000000002 249.47368 -122.15341000000001 249.47368 L -124.73684 249.47368" stroke-linecap="round" />
</g>
<g transform="matrix(0.91 0 0 0.91 364.99 249.48)" id="inn9J6Y0_k4cxQFxEiFgL"  >
<path style="stroke: #d3d5db; stroke-width: 5; stroke-dasharray: none; stroke-linecap: butt; stroke-dashoffset: 0; stroke-linejoin: miter; stroke-miterlimit: 4; fill: rgb(0,0,0); fill-opacity: 0; fill-rule: nonzero; opacity: 1;" vector-effect="non-scaling-stroke"  transform=" translate(0, 0)" d="M -124.73684 -249.47368 L -124.73684 -249.47368 C 13.043669999999992 -249.47368 124.73684 -137.78051 124.73684 0 L 124.73684 0 L 124.73684 0 L 124.73684 0 C 124.73684 137.78051 13.043670000000006 249.47368 -124.73684 249.47368 L -124.73684 249.47368" stroke-linecap="round" />
</g>
<g transform="matrix(-0.92 0 0 -0.91 136.34 249.45)" id="xQkUu-EY-sWYi02W0ZFWf"  >
<path style="stroke: #d3d5db; stroke-width: 2; stroke-dasharray: none; stroke-linecap: butt; stroke-dashoffset: 0; stroke-linejoin: miter; stroke-miterlimit: 4; fill: rgb(0,0,0); fill-opacity: 0; fill-rule: nonzero; opacity: 1;" vector-effect="non-scaling-stroke"  transform=" translate(0, 0)" d="M -124.73684 -249.47368 L -122.15341000000001 -249.47368 C 14.200310000000002 -249.47368 124.73684 -137.79413 124.73684 -0.030429999999995516 L 124.73684 4.4825254619240695e-15 L 124.73684 0.03043000000000448 L 124.73684 0.03043000000000448 C 124.73684 137.79413 14.200310000000002 249.47368 -122.15341000000001 249.47368 L -124.73684 249.47368" stroke-linecap="round" />
</g>
<g transform="matrix(0.83 0 0 0.83 352.21 249.45)" id="Yck9gwKfOUta_gOP14ecS"  >
<path style="stroke: #d3d5db; stroke-width: 5; stroke-dasharray: none; stroke-linecap: butt; stroke-dashoffset: 0; stroke-linejoin: miter; stroke-miterlimit: 4; fill: rgb(0,0,0); fill-opacity: 0; fill-rule: nonzero; opacity: 1;" vector-effect="non-scaling-stroke"  transform=" translate(0, 0)" d="M -124.73684 -249.47368 L -124.73684 -249.47368 C 13.043669999999992 -249.47368 124.73684 -137.78051 124.73684 0 L 124.73684 0 L 124.73684 0 L 124.73684 0 C 124.73684 137.78051 13.043670000000006 249.47368 -124.73684 249.47368 L -124.73684 249.47368" stroke-linecap="round" />
</g>
<g transform="matrix(-0.84 0 0 -0.83 143.63 249.42)" id="dVpKZnEHdrnPQzq7FnhII"  >
<path style="stroke: #d3d5db; stroke-width: 2; stroke-dasharray: none; stroke-linecap: butt; stroke-dashoffset: 0; stroke-linejoin: miter; stroke-miterlimit: 4; fill: rgb(0,0,0); fill-opacity: 0; fill-rule: nonzero; opacity: 1;" vector-effect="non-scaling-stroke"  transform=" translate(0, 0)" d="M -124.73684 -249.47368 L -122.15341000000001 -249.47368 C 14.200310000000002 -249.47368 124.73684 -137.79413 124.73684 -0.030429999999995516 L 124.73684 4.4825254619240695e-15 L 124.73684 0.03043000000000448 L 124.73684 0.03043000000000448 C 124.73684 137.79413 14.200310000000002 249.47368 -122.15341000000001 249.47368 L -124.73684 249.47368" stroke-linecap="round" />
</g>
<g transform="matrix(0.75 0 0 0.75 346.01 250)" id="AJuIX9NKCg6oI60Z_3nMb"  >
<path style="stroke: #d3d5db; stroke-width: 5; stroke-dasharray: none; stroke-linecap: butt; stroke-dashoffset: 0; stroke-linejoin: miter; stroke-miterlimit: 4; fill: rgb(0,0,0); fill-opacity: 0; fill-rule: nonzero; opacity: 1;" vector-effect="non-scaling-stroke"  transform=" translate(0, 0)" d="M -124.73684 -249.47368 L -124.73684 -249.47368 C 13.043669999999992 -249.47368 124.73684 -137.78051 124.73684 0 L 124.73684 0 L 124.73684 0 L 124.73684 0 C 124.73684 137.78051 13.043670000000006 249.47368 -124.73684 249.47368 L -124.73684 249.47368" stroke-linecap="round" />
</g>
<g transform="matrix(-0.76 0 0 -0.75 157.64 249.97)" id="OHjv1lrCz_tNgrzVINvSc"  >
<path style="stroke: #d3d5db; stroke-width: 2; stroke-dasharray: none; stroke-linecap: butt; stroke-dashoffset: 0; stroke-linejoin: miter; stroke-miterlimit: 4; fill: rgb(0,0,0); fill-opacity: 0; fill-rule: nonzero; opacity: 1;" vector-effect="non-scaling-stroke"  transform=" translate(0, 0)" d="M -124.73684 -249.47368 L -122.15341000000001 -249.47368 C 14.200310000000002 -249.47368 124.73684 -137.79413 124.73684 -0.030429999999995516 L 124.73684 4.4825254619240695e-15 L 124.73684 0.03043000000000448 L 124.73684 0.03043000000000448 C 124.73684 137.79413 14.200310000000002 249.47368 -122.15341000000001 249.47368 L -124.73684 249.47368" stroke-linecap="round" />
</g>
<g transform="matrix(0.67 0 0 0.67 335.64 250)" id="z4g4awKO8EIazBMVkD9IG"  >
<path style="stroke: #d3d5db; stroke-width: 5; stroke-dasharray: none; stroke-linecap: butt; stroke-dashoffset: 0; stroke-linejoin: miter; stroke-miterlimit: 4; fill: rgb(0,0,0); fill-opacity: 0; fill-rule: nonzero; opacity: 1;" vector-effect="non-scaling-stroke"  transform=" translate(0, 0)" d="M -124.73684 -249.47368 L -124.73684 -249.47368 C 13.043669999999992 -249.47368 124.73684 -137.78051 124.73684 0 L 124.73684 0 L 124.73684 0 L 124.73684 0 C 124.73684 137.78051 13.043670000000006 249.47368 -124.73684 249.47368 L -124.73684 249.47368" stroke-linecap="round" />
</g>
<g transform="matrix(-0.68 0 0 -0.67 167.34 249.97)" id="3idY3XW7JIrZT9fR_FNib"  >
<path style="stroke: #d3d5db; stroke-width: 2; stroke-dasharray: none; stroke-linecap: butt; stroke-dashoffset: 0; stroke-linejoin: miter; stroke-miterlimit: 4; fill: rgb(0,0,0); fill-opacity: 0; fill-rule: nonzero; opacity: 1;" vector-effect="non-scaling-stroke"  transform=" translate(0, 0)" d="M -124.73684 -249.47368 L -122.15341000000001 -249.47368 C 14.200310000000002 -249.47368 124.73684 -137.79413 124.73684 -0.030429999999995516 L 124.73684 4.4825254619240695e-15 L 124.73684 0.03043000000000448 L 124.73684 0.03043000000000448 C 124.73684 137.79413 14.200310000000002 249.47368 -122.15341000000001 249.47368 L -124.73684 249.47368" stroke-linecap="round" />
</g>
</svg>