<?xml version="1.0" encoding="UTF-8" standalone="no" ?>
<!DOCTYPE svg PUBLIC "-//W3C//DTD SVG 1.1//EN" "http://www.w3.org/Graphics/SVG/1.1/DTD/svg11.dtd">
<svg xmlns="http://www.w3.org/2000/svg" xmlns:xlink="http://www.w3.org/1999/xlink" version="1.1" width="500" height="500" viewBox="0 0 500 500" xml:space="preserve">
<desc>Created with Fabric.js 4.6.0</desc>
<defs>
</defs>
<g transform="matrix(1 0 0 1 197.93 159.43)" id="53vNsG5Ntj3iQIyxs1Rfg"  >
<path style="stroke: rgb(0,0,0); stroke-width: 1; stroke-dasharray: none; stroke-linecap: butt; stroke-dashoffset: 0; stroke-linejoin: miter; stroke-miterlimit: 4; fill: rgb(255,255,255); fill-rule: nonzero; opacity: 1;" vector-effect="non-scaling-stroke"  transform=" translate(0, 0)" d="M 0 0" stroke-linecap="round" />
</g>
<g transform="matrix(0.76 0 0 0.76 249.84 250.37)" id="wimxlhsXmVuBQgshsWhA-"  >
<path style="stroke: rgb(0,0,0); stroke-width: 0; stroke-dasharray: none; stroke-linecap: butt; stroke-dashoffset: 0; stroke-linejoin: miter; stroke-miterlimit: 4; fill: rgb(255,0,0); fill-rule: nonzero; opacity: 1;" vector-effect="non-scaling-stroke"  transform=" translate(0, 0)" d="M -170 -250 L 163.98820999999998 -250 L 163.98820999999998 -250 C 255.67398999999997 -250 330 -175.67399 330 -83.98821000000001 L 330 112.68338 L 330 112.68338 C 330 188.52125999999998 268.52125 250 192.68338 250 L -57.40513999999999 250 L -57.40513999999999 250 C -119.58955999999999 250 -170 199.58957 -170 137.40514000000002 L -170 10.808110000000013 L -170 10.808110000000013 C -170 -5.190409999999986 -163.55033 -20.513359999999988 -152.1093 -31.696169999999988 C -140.66826 -42.878979999999984 -125.20209 -48.97721999999999 -109.20773999999999 -48.61204999999999 L -109.20773999999999 -48.61204999999999 L -109.20773999999999 -48.61204999999999 C -76.29185999999999 -47.86054999999999 -50.00000999999999 -20.96157999999999 -50.00000999999999 11.962890000000009 L -50.00000999999999 11.962890000000009 L -50.00000999999999 11.962890000000009 C -50.00000999999999 88.19868 11.801310000000008 150.00000000000003 88.03710000000002 150.00000000000003 L 88.03710000000002 150.00000000000003 L 88.03710000000002 150.00000000000003 C 166.44104000000004 150.00000000000003 229.99999000000003 86.44105000000002 229.99999000000003 8.037110000000041 L 229.99999000000003 8.037110000000041 L 229.99999000000003 8.037110000000041 C 229.99999000000003 -79.24437999999996 159.24436000000003 -149.99999999999997 71.96288000000001 -149.99999999999997 L -170.00000999999997 -149.99999999999997 L -330.00001 -149.99999999999997 L -330.00001 -249.99999999999997 z" stroke-linecap="round" />
</g>
</svg>